HIERARCHY
ROOT SimulationBone
{
	OFFSET 0.000000 0.000000 0.000000
	CHANNELS 6 Xposition Yposition Zposition Zrotation Yrotation Xrotation 
	JOINT Hips
	{
		OFFSET 0.000000 0.000000 0.000000
		CHANNELS 6 Xposition Yposition Zposition Zrotation Yrotation Xrotation 
		JOINT RightUpLeg
		{
			OFFSET 0.103456 1.857826 10.548504
			CHANNELS 3 Zrotation Yrotation Xrotation
			JOINT RightLeg
			{
				OFFSET 43.499996 -0.000038 0.000006
				CHANNELS 3 Zrotation Yrotation Xrotation
				JOINT RightFoot
				{
					OFFSET 42.372192 0.000011 -0.000004
					CHANNELS 3 Zrotation Yrotation Xrotation
					JOINT RightToe
					{
						OFFSET 17.300018 0.000006 0.000004
						CHANNELS 3 Zrotation Yrotation Xrotation
						End Site
						{
							OFFSET 0.000000 0.000000 0.000000
						}
					}
				}
			}
		}
		JOINT LeftUpLeg
		{
			OFFSET 0.103455 1.857819 -10.548502
			CHANNELS 3 Zrotation Yrotation Xrotation
			JOINT LeftLeg
			{
				OFFSET 43.500038 -0.000031 0.000011
				CHANNELS 3 Zrotation Yrotation Xrotation
				JOINT LeftFoot
				{
					OFFSET 42.372261 -0.000008 0.000014
					CHANNELS 3 Zrotation Yrotation Xrotation
					JOINT LeftToe
					{
						OFFSET 17.299999 -0.000004 0.000004
						CHANNELS 3 Zrotation Yrotation Xrotation
						End Site
						{
							OFFSET 0.000000 0.000000 0.000000
						}
					}
				}
			}
		}
		JOINT Spine
		{
			OFFSET 6.901965 -2.603737 -0.000000
			CHANNELS 3 Zrotation Yrotation Xrotation
			JOINT Spine1
			{
				OFFSET 12.588105 0.000013 0.000001
				CHANNELS 3 Zrotation Yrotation Xrotation
				JOINT Spine2
				{
					OFFSET 12.343203 0.000010 -0.000000
					CHANNELS 3 Zrotation Yrotation Xrotation
					JOINT Neck
					{
						OFFSET 25.832893 -0.000038 0.000001
						CHANNELS 3 Zrotation Yrotation Xrotation
						JOINT Head
						{
							OFFSET 11.766606 0.000028 0.000001
							CHANNELS 3 Zrotation Yrotation Xrotation
							End Site
							{
								OFFSET 0.000000 0.000000 0.000000
							}
						}
					}
					JOINT RightShoulder
					{
						OFFSET 19.745897 -1.480375 6.000107
						CHANNELS 3 Zrotation Yrotation Xrotation
						JOINT RightArm
						{
							OFFSET 11.284126 -0.000009 -0.000017
							CHANNELS 3 Zrotation Yrotation Xrotation
							JOINT RightForeArm
							{
								OFFSET 33.000046 0.000006 0.000030
								CHANNELS 3 Zrotation Yrotation Xrotation
								JOINT RightHand
								{
									OFFSET 25.200006 0.000034 0.000015
									CHANNELS 3 Zrotation Yrotation Xrotation
									End Site
									{
										OFFSET 0.000000 0.000000 0.000000
									}
								}
							}
						}
					}
					JOINT LeftShoulder
					{
						OFFSET 19.746096 -1.480394 -6.000075
						CHANNELS 3 Zrotation Yrotation Xrotation
						JOINT LeftArm
						{
							OFFSET 11.284135 -0.000006 -0.000006
							CHANNELS 3 Zrotation Yrotation Xrotation
							JOINT LeftForeArm
							{
								OFFSET 33.000095 0.000018 0.000006
								CHANNELS 3 Zrotation Yrotation Xrotation
								JOINT LeftHand
								{
									OFFSET 25.199783 0.000116 0.000436
									CHANNELS 3 Zrotation Yrotation Xrotation
									End Site
									{
										OFFSET 0.000000 0.000000 0.000000
									}
								}
							}
						}
					}
				}
			}
		}
	}
}
MOTION
Frames: 11
Frame Time: 0.016667
223.669256 0.000000 261.787205 180.000000 -71.863378 180.000000 0.438593 91.215932 -3.143843 94.942539 -5.637594 178.887961 -170.999405 4.790763 175.910261 -62.161981 -1.838986 -8.577931 53.803685 -3.005923 -19.302018 21.454564 0.003110 0.000019 162.015695 -1.390308 -168.267592 -22.006779 -0.325930 1.214761 79.799265 -1.103044 -0.878295 21.454551 -0.003086 0.000001 8.994908 -0.191671 -0.866346 7.979475 -0.323171 -1.743821 7.661527 -0.333843 -1.741841 -27.495214 4.556700 -4.659949 -1.813944 -1.304785 -1.681599 132.315683 -74.807469 47.279399 18.147076 55.553566 37.873802 -104.258103 -0.756558 3.037042 -8.834369 -15.253304 29.854424 -171.115705 77.273187 10.499269 29.854145 -46.702375 -42.922044 -108.611607 -2.448155 -2.958713 2.165505 13.935978 -1.116186 
222.592383 0.000000 265.879276 180.000000 -71.593368 180.000000 0.168442 90.079147 -2.984286 95.180861 -4.677435 179.297863 -173.336554 2.461592 174.148937 -67.486072 -1.115057 -8.914076 54.378427 -2.680590 -19.292933 21.454560 0.003111 0.000019 161.421686 -3.246800 -167.611476 -26.218635 -1.568061 2.169082 79.256899 -3.278043 -7.010523 21.454553 -0.003093 0.000000 9.135792 0.057390 -0.781518 8.257591 0.170384 -1.556945 7.939613 0.160837 -1.557945 -26.808485 3.986431 -4.534441 -2.651092 -0.788037 -2.001310 133.036195 -74.749238 46.554659 18.235569 55.905274 37.135034 -103.811204 -0.831208 3.022433 -8.738804 -14.751221 30.410211 -172.354017 76.972860 9.232893 26.112546 -46.640482 -40.012507 -106.834184 -2.049331 -2.908923 2.005383 14.069888 -3.103749 
221.519703 0.000000 269.938812 180.000000 -71.298723 180.000000 -0.149611 88.905041 -2.703481 95.381608 -3.607941 179.818584 -176.107745 0.115700 172.767746 -72.776507 -0.138193 -9.547324 55.635433 -2.117104 -19.533189 21.454558 0.003112 0.000015 160.626561 -5.129898 -167.473309 -32.297374 -3.190333 3.568721 82.238359 -4.580277 -9.584238 21.454553 -0.003094 -0.000001 9.282215 0.339518 -0.730822 8.547175 0.732065 -1.434611 8.229158 0.723257 -1.439007 -26.066180 3.167618 -4.271001 -3.597390 -0.149048 -2.349673 134.409526 -74.562439 45.178900 18.586742 56.282982 36.210758 -103.081594 -0.946157 2.997907 -8.917975 -14.229102 31.346808 -174.002086 76.448434 7.543387 21.439844 -46.345199 -36.465307 -104.872727 -1.606217 -2.853584 1.650611 14.157219 -5.240740 
220.442336 0.000000 273.974994 180.000000 -70.980071 180.000000 -0.466505 87.756218 -2.391076 95.546109 -2.722671 -179.617961 -179.286619 -1.859399 172.016333 -77.732155 0.873268 -10.214470 57.768025 -1.422807 -19.896679 21.454558 0.003112 0.000011 160.178837 -6.587004 -167.597829 -38.619791 -4.506277 4.996905 87.103530 -4.998330 -9.418794 21.454553 -0.003091 -0.000001 9.428319 0.593424 -0.711187 8.836859 1.239408 -1.375061 8.518789 1.230956 -1.382528 -25.435030 2.229352 -3.954636 -4.524830 0.453878 -2.695202 136.206701 -74.240894 43.383115 19.209399 56.689322 35.231703 -102.005794 -1.099748 2.960909 -9.369954 -13.937242 32.400333 -175.917000 75.789406 5.575926 16.307973 -45.900926 -32.569090 -102.798499 -1.133071 -2.795039 1.170252 14.227620 -7.309645 
219.354258 0.000000 277.998773 180.000000 -70.641723 180.000000 -0.755499 86.724657 -2.132599 95.653311 -2.228246 -179.067040 177.138131 -3.179422 172.046999 -81.984414 1.723174 -10.591968 60.693890 -0.695625 -20.049059 21.454555 0.003110 0.000010 160.601550 -7.314209 -167.696150 -43.431748 -5.088720 5.844826 91.848750 -4.941360 -8.327716 21.454554 -0.003090 -0.000000 9.564929 0.771003 -0.709744 9.108437 1.595482 -1.356702 8.790310 1.587126 -1.366323 -25.055971 1.329265 -3.690824 -5.287313 0.876234 -3.017055 138.097432 -73.818748 41.498102 20.074170 57.132554 34.345116 -100.569943 -1.282665 2.909893 -10.021271 -14.087717 33.249200 -177.928604 75.114134 3.505435 11.235263 -45.517975 -28.597792 -100.729634 -0.655344 -2.737375 0.663042 14.298247 -9.107992 
218.247952 0.000000 282.022329 180.000000 -70.289416 180.000000 -1.053999 85.984108 -1.936741 95.664357 -1.957933 -178.505051 173.286421 -3.877697 172.854685 -85.088317 2.279159 -10.516653 63.906029 0.341561 -18.694480 21.454553 0.003107 0.000012 161.947596 -7.569895 -167.505362 -46.331611 -5.302160 6.101130 95.773369 -4.673786 -7.206840 21.454555 -0.003090 0.000000 9.675004 0.889108 -0.689600 9.327918 1.830929 -1.305416 9.009737 1.822870 -1.316462 -24.947327 0.601535 -3.599502 -5.751277 1.101268 -3.356041 139.694482 -73.416313 39.907211 21.070863 57.592645 33.713024 -98.934954 -1.464907 2.849297 -10.643941 -14.701439 33.577602 -179.715937 74.558245 1.663090 6.734397 -45.558368 -24.752815 -98.900974 -0.231657 -2.684978 0.249337 14.331765 -10.535148 
217.114057 0.000000 286.057265 180.000000 -69.928882 180.000000 -1.388702 85.690520 -1.798274 95.556967 -1.739262 -177.937956 169.371490 -4.027067 174.304193 -86.627413 2.445569 -10.023526 66.947265 1.772801 -15.074781 21.454552 0.003105 0.000017 164.147766 -7.660596 -166.901882 -47.332962 -5.519107 5.951723 98.561483 -4.319031 -6.572195 21.454553 -0.003090 -0.000001 9.742076 0.962939 -0.609147 9.462893 1.972480 -1.137665 9.144661 1.965434 -1.149571 -25.073551 0.139525 -3.779065 -5.830612 1.165899 -3.767867 140.742079 -73.166088 38.861315 22.103531 58.018789 33.499304 -97.317722 -1.613980 2.787417 -11.001140 -15.717802 33.147713 178.973112 74.239499 0.311486 3.177651 -46.378798 -21.146146 -97.569142 0.072344 -2.646705 0.034295 14.298856 -11.531273 
215.947536 0.000000 290.114452 180.000000 -69.563033 180.000000 -1.679694 85.846863 -1.726951 95.363291 -1.753979 -177.569510 165.816994 -3.581213 175.866416 -86.390356 2.253263 -9.810978 69.661542 3.104066 -11.665067 21.454555 0.003105 0.000020 167.108556 -7.448403 -166.320830 -46.740186 -5.669067 5.444451 100.177502 -3.846769 -6.216950 21.454551 -0.003090 -0.000001 9.759230 0.936562 -0.432403 9.500367 1.905464 -0.786571 9.182111 1.900545 -0.798079 -25.312481 -0.098868 -4.220731 -5.614770 1.193732 -4.299265 141.308443 -73.131624 38.287665 23.207317 58.278874 33.857742 -95.984893 -1.706337 2.734050 -11.031012 -16.908487 32.054572 178.267937 74.154192 -0.414066 0.727804 -47.997559 -17.959356 -96.959554 0.194539 -2.628360 0.031186 14.242030 -12.104270 
214.748716 0.000000 294.206008 180.000000 -69.191734 180.000000 -1.847271 86.406134 -1.726482 95.116890 -2.188473 -177.589315 163.002074 -2.596633 177.049276 -84.302277 1.772442 -10.482406 71.851561 4.070459 -10.866296 21.454559 0.003108 0.000018 170.683200 -6.731174 -166.220540 -44.958708 -5.569561 4.639083 100.608841 -3.269324 -5.834378 21.454550 -0.003090 -0.000000 9.723899 0.760600 -0.138648 9.434353 1.529973 -0.214847 9.116127 1.528510 -0.224095 -25.532692 -0.198194 -4.868408 -5.253121 1.308990 -4.973276 141.544006 -73.328203 38.032810 24.447347 58.237366 34.872934 -95.174719 -1.726827 2.698935 -10.757742 -18.013336 30.514216 178.235328 74.254477 -0.444789 -0.503816 -50.289482 -15.473842 -97.224701 0.091286 -2.632263 0.210534 14.219927 -12.271665 
213.516956 0.000000 298.340808 180.000000 -68.810060 180.000000 -1.915642 87.274406 -1.773420 94.825787 -2.883584 -177.944654 160.909503 -1.369404 177.900446 -80.646167 1.079015 -11.508108 73.526084 4.853890 -11.347711 21.454562 0.003109 0.000015 174.528026 -5.641805 -166.703157 -42.494257 -5.082945 3.791055 99.654071 -2.758200 -5.438242 21.454551 -0.003088 -0.000000 9.643680 0.482431 0.237140 9.276935 0.944326 0.512201 8.958794 0.947261 0.506480 -25.644191 -0.277490 -5.577517 -4.953552 1.550768 -5.726703 141.716887 -73.663122 37.831234 25.910807 57.835048 36.396322 -94.960741 -1.682774 2.686518 -10.359090 -18.849536 28.906531 178.635033 74.444728 -0.030004 -0.738415 -52.845790 -13.935698 -98.255603 -0.209015 -2.657861 0.470768 14.297364 -12.018520 
212.246726 0.000000 302.514090 180.000000 -68.409759 180.000000 -1.918134 88.345123 -1.845693 94.492948 -3.615974 -178.506729 159.419212 -0.194168 178.615167 -75.773877 0.204542 -12.244946 74.781945 5.557132 -11.299097 21.454561 0.003104 0.000018 178.279958 -4.359034 -167.702522 -39.839447 -4.192889 3.108298 97.120781 -2.437452 -5.061789 21.454551 -0.003085 -0.000001 9.528211 0.169881 0.642643 9.045242 0.289072 1.296584 8.727227 0.296760 1.294805 -25.599920 -0.441831 -6.197707 -4.883508 1.908448 -6.474340 142.085930 -74.023189 37.428384 27.672435 57.058150 38.210779 -95.336009 -1.588580 2.696874 -10.032282 -19.308670 27.599012 179.167748 74.635595 0.520475 -0.237642 -55.199113 -13.562782 -99.852300 -0.652627 -2.698965 0.705990 14.509125 -11.340625 
